<?xml version="1.0" encoding="UTF-8"?> <svg xmlns="http://www.w3.org/2000/svg" width="294" height="294" viewBox="0 0 294 294" fill="none"> <path d="M268.41 121.462C282.486 188.543 239.517 254.334 172.435 268.41C105.354 282.486 39.5626 239.517 25.4867 172.435C11.4108 105.354 54.3803 39.5626 121.462 25.4867C188.543 11.4108 254.334 54.3802 268.41 121.462Z" fill="#FFCB00"></path> <path d="M262.162 122.773C275.513 186.403 234.754 248.81 171.124 262.162L173.746 274.659C244.279 259.859 289.459 190.683 274.659 120.151L262.162 122.773ZM171.124 262.162C107.493 275.513 45.087 234.754 31.7352 171.124L19.2382 173.746C34.0382 244.279 103.214 289.459 173.746 274.659L171.124 262.162ZM31.7352 171.124C18.3835 107.493 59.1424 45.087 122.773 31.7352L120.151 19.2381C49.6181 34.0382 4.43811 103.214 19.2382 173.746L31.7352 171.124ZM122.773 31.7352C186.403 18.3834 248.81 59.1424 262.162 122.773L274.659 120.151C259.859 49.6181 190.683 4.4381 120.151 19.2381L122.773 31.7352Z" fill="#FFCB00"></path> <path fill-rule="evenodd" clip-rule="evenodd" d="M202.578 127.287L118.898 96.5719C109.79 93.2317 100.548 101.214 102.542 110.714L121.944 203.178C123.937 212.677 135.611 216.283 142.605 209.552L206.869 147.794C213.475 141.473 211.158 130.433 202.578 127.287V127.287Z" fill="#2B3134"></path> </svg> 